<svg id="Flower" xmlns="http://www.w3.org/2000/svg" xmlns:xlink="http://www.w3.org/1999/xlink" viewBox="0 0 2560 2560"><defs><style>.cls-1{fill:url(#radial-gradient);}.cls-2{fill:#ff7bac;}.cls-3{fill:url(#radial-gradient-2);}.cls-4{mask:url(#mask);}.cls-5{fill:url(#linear-gradient);}.cls-6{fill:url(#linear-gradient-2);}.cls-7{fill:url(#linear-gradient-3);}.cls-8{fill:url(#linear-gradient-4);}.cls-9{fill:url(#linear-gradient-5);}.cls-10{fill:url(#linear-gradient-6);}.cls-11{fill:url(#linear-gradient-7);}.cls-12{fill:url(#linear-gradient-8);}.cls-13{fill:url(#linear-gradient-9);}.cls-14{fill:url(#linear-gradient-10);}.cls-15{fill:url(#linear-gradient-11);}.cls-16{fill:url(#linear-gradient-12);}.cls-17{fill:url(#linear-gradient-13);}.cls-18{fill:url(#linear-gradient-14);}.cls-19{fill:url(#linear-gradient-15);}.cls-20{fill:url(#linear-gradient-16);}.cls-21{fill:url(#linear-gradient-17);}.cls-22{fill:url(#linear-gradient-18);}.cls-23{fill:#fff;}.cls-24{filter:url(#luminosity-noclip);}</style><radialGradient id="radial-gradient" cx="2451.23" cy="2363.79" r="2273.37" gradientUnits="userSpaceOnUse"><stop offset="0" stop-color="#ffaad4"/><stop offset="0.23" stop-color="#ffaad4"/></radialGradient><radialGradient id="radial-gradient-2" cx="1281" cy="1330" r="1205" gradientUnits="userSpaceOnUse"><stop offset="0" stop-color="#ff7bac"/><stop offset="0.02" stop-color="#ff7cad" stop-opacity="0.98"/><stop offset="0.05" stop-color="#ff7fb0" stop-opacity="0.91"/><stop offset="0.08" stop-color="#ff84b4" stop-opacity="0.8"/><stop offset="0.12" stop-color="#ff8bba" stop-opacity="0.65"/><stop offset="0.15" stop-color="#ff94c2" stop-opacity="0.46"/><stop offset="0.19" stop-color="#ff9fcb" stop-opacity="0.23"/><stop offset="0.23" stop-color="#ffaad4" stop-opacity="0"/></radialGradient><filter id="luminosity-noclip" x="830.4" y="-9472" width="900.6" height="32766" filterUnits="userSpaceOnUse" color-interpolation-filters="sRGB"><feFlood flood-color="#fff" result="bg"/><feBlend in="SourceGraphic" in2="bg"/></filter><mask id="mask" x="830.4" y="-9472" width="900.6" height="32766" maskUnits="userSpaceOnUse"><g class="cls-24"/></mask><linearGradient id="linear-gradient" x1="1280" y1="1329.99" x2="1066.72" y2="1584.17" gradientUnits="userSpaceOnUse"><stop offset="0.4" stop-color="#fff"/><stop offset="1" stop-color="#0057b3"/></linearGradient><linearGradient id="linear-gradient-2" x1="1280" y1="1329.99" x2="953.23" y2="1387.61" gradientUnits="userSpaceOnUse"><stop offset="0.4" stop-color="#fff"/><stop offset="1" stop-color="#007db5"/></linearGradient><linearGradient id="linear-gradient-3" x1="1280" y1="1329.99" x2="992.64" y2="1164.08" gradientUnits="userSpaceOnUse"><stop offset="0.4" stop-color="#fff"/><stop offset="1" stop-color="#008f86"/></linearGradient><linearGradient id="linear-gradient-4" x1="1280" y1="1329.99" x2="1166.51" y2="1018.19" gradientUnits="userSpaceOnUse"><stop offset="0.4" stop-color="#fff"/><stop offset="1" stop-color="#009d38"/></linearGradient><linearGradient id="linear-gradient-5" x1="1280" y1="1329.99" x2="1393.49" y2="1018.19" gradientUnits="userSpaceOnUse"><stop offset="0.4" stop-color="#fff"/><stop offset="1" stop-color="#9ec500"/></linearGradient><linearGradient id="linear-gradient-6" x1="1280" y1="1329.99" x2="1567.36" y2="1164.08" gradientUnits="userSpaceOnUse"><stop offset="0.4" stop-color="#fff"/><stop offset="1" stop-color="#ff9d00"/></linearGradient><linearGradient id="linear-gradient-7" x1="1280" y1="1329.99" x2="1606.77" y2="1387.61" gradientUnits="userSpaceOnUse"><stop offset="0.4" stop-color="#fff"/><stop offset="1" stop-color="#c82735"/></linearGradient><linearGradient id="linear-gradient-8" x1="1280" y1="1329.99" x2="1493.28" y2="1584.17" gradientUnits="userSpaceOnUse"><stop offset="0.4" stop-color="#fff"/><stop offset="1" stop-color="#b70073"/></linearGradient><linearGradient id="linear-gradient-9" x1="1280" y1="1329.99" x2="1280" y2="1661.8" gradientUnits="userSpaceOnUse"><stop offset="0.4" stop-color="#fff"/><stop offset="1" stop-color="#7d45a8"/></linearGradient><linearGradient id="linear-gradient-10" x1="1280.7" y1="1330.01" x2="1574.07" y2="980.38" gradientUnits="userSpaceOnUse"><stop offset="0.29" stop-color="#fff"/><stop offset="1" stop-color="#ffdf00"/></linearGradient><linearGradient id="linear-gradient-11" x1="1280.7" y1="1330.01" x2="1730.17" y2="1250.75" gradientUnits="userSpaceOnUse"><stop offset="0.29" stop-color="#fff"/><stop offset="1" stop-color="#f65a14"/></linearGradient><linearGradient id="linear-gradient-12" x1="1280.7" y1="1330.01" x2="1675.96" y2="1558.21" gradientUnits="userSpaceOnUse"><stop offset="0.29" stop-color="#fff"/><stop offset="1" stop-color="#bc004e"/></linearGradient><linearGradient id="linear-gradient-13" x1="1280.7" y1="1330.01" x2="1436.8" y2="1758.89" gradientUnits="userSpaceOnUse"><stop offset="0.29" stop-color="#fff"/><stop offset="1" stop-color="#9f2b95"/></linearGradient><linearGradient id="linear-gradient-14" x1="1280.7" y1="1330.01" x2="1124.6" y2="1758.89" gradientUnits="userSpaceOnUse"><stop offset="0.29" stop-color="#fff"/><stop offset="1" stop-color="#374ab5"/></linearGradient><linearGradient id="linear-gradient-15" x1="1280.7" y1="1330.01" x2="885.44" y2="1558.21" gradientUnits="userSpaceOnUse"><stop offset="0.29" stop-color="#fff"/><stop offset="1" stop-color="#006bbb"/></linearGradient><linearGradient id="linear-gradient-16" x1="1280.7" y1="1330.01" x2="831.23" y2="1250.75" gradientUnits="userSpaceOnUse"><stop offset="0.29" stop-color="#fff"/><stop offset="1" stop-color="#008da9"/></linearGradient><linearGradient id="linear-gradient-17" x1="1280.7" y1="1330.01" x2="987.33" y2="980.38" gradientUnits="userSpaceOnUse"><stop offset="0.29" stop-color="#fff"/><stop offset="1" stop-color="#009060"/></linearGradient><linearGradient id="linear-gradient-18" x1="1280.7" y1="1330.01" x2="1280.7" y2="873.6" gradientUnits="userSpaceOnUse"><stop offset="0.29" stop-color="#fff"/><stop offset="0.36" stop-color="#f3faf1"/><stop offset="0.5" stop-color="#d5eecc"/><stop offset="0.69" stop-color="#a4da91"/><stop offset="0.91" stop-color="#61be40"/><stop offset="1" stop-color="#46b31f"/></linearGradient></defs><g id="Petals"><path id="Petals-2" data-name="Petals" class="cls-1" d="M2305.24,996.88l75-145.09C2272.9,766,2069.49,660.93,1886.49,720,1771.41,757.2,1669.55,829.61,1583.73,912c51.79-107.07,89.19-226.31,89-347.25-.34-192.3-163.1-353.3-277.9-428.9L1280,252,1165.2,135.8c-114.8,75.6-277.56,236.6-277.9,428.9-.22,120.94,37.18,240.18,89,347.25C890.45,829.61,788.59,757.2,673.51,720c-183-59.1-386.41,45.94-493.79,131.76l75,145.09-146,73.27C145.2,1202.7,248,1407.24,430.8,1467c115,37.58,239.92,38.86,357.75,22.69-104.83,56.18-205.17,130.67-276.08,228.64-112.76,155.77-75.72,381.69-27.28,510.33l161.18-26.53,24.57,161.49c137.31,6.31,363.62-28.27,476.93-183.65,71.26-97.71,111.09-216.16,132.13-333.22,21,117.06,60.87,235.51,132.13,333.22,113.31,155.38,339.62,190,476.93,183.65l24.57-161.49,161.18,26.53c48.44-128.64,85.48-354.56-27.28-510.33-70.91-98-171.25-172.46-276.08-228.64,117.83,16.17,242.79,14.89,357.75-22.69,182.78-59.75,285.6-264.29,322-396.84Z"/><g id="Shadows"><path class="cls-2" d="M1752.68,1176.42c294-32.24,503.29-163.53,503.29-163.53S2009.49,1029.68,1752.68,1176.42Z"/><path class="cls-2" d="M1572.13,1732.08c121.51,269.67,311.06,428.13,311.06,428.13S1791.05,1931,1572.13,1732.08Z"/><path class="cls-2" d="M676.81,2160.21s189.55-158.46,311.06-428.13C769,1931,676.81,2160.21,676.81,2160.21Z"/><path class="cls-2" d="M304,1012.89s209.28,131.29,503.29,163.53C550.51,1029.68,304,1012.89,304,1012.89Z"/><path class="cls-2" d="M1280,833c60.2-289.59,0-529.2,0-529.2S1219.8,543.41,1280,833Z"/></g></g><circle id="Petal_Overlay" data-name="Petal Overlay" class="cls-3" cx="1281" cy="1330" r="1205"/><g class="cls-4"><g id="Stamen"><g id="Short_Stamen" data-name="Short Stamen"><path class="cls-5" d="M1121.56,1524.41l161.64-191.7-6.42-5.42-161.73,191.82a40.6,40.6,0,1,0,6.51,5.3Z"/><path class="cls-6" d="M1280.71,1334.13l-1.44-8.28-247.19,43a40.61,40.61,0,1,0,1.58,8.25Z"/><path class="cls-7" d="M1282.1,1326.35l-217-126a40.59,40.59,0,1,0-4.09,7.34l216.86,125.9Z"/><path class="cls-8" d="M1284,1328.55l-85.25-236a40.6,40.6,0,1,0-7.85,3l85.2,235.84Z"/><path class="cls-9" d="M1393.49,1018.19a40.6,40.6,0,0,0-31.1,74.92l-86.33,235.42,7.89,2.9,86.38-235.57a40.6,40.6,0,0,0,23.16-77.67Z"/><path class="cls-10" d="M1567.36,1164.08a40.6,40.6,0,0,0-72,37.4l-217.46,124.86,4.18,7.29,217.59-124.93a40.6,40.6,0,0,0,67.67-44.62Z"/><path class="cls-11" d="M1573.84,1340.57a40.61,40.61,0,0,0-46.25,29.42l-246.84-44.13-1.48,8.27,247,44.16a40.6,40.6,0,1,0,47.58-37.72Z"/><path class="cls-12" d="M1498.29,1527a40.62,40.62,0,0,0-54.34-7.19l-160.72-192.47-6.45,5.38,160.82,192.59a40.59,40.59,0,1,0,60.69,1.69Z"/><path class="cls-13" d="M1283.6,1580.77l.6-250.76-8.4,0-.6,250.9a40.62,40.62,0,1,0,8.4-.12Z"/></g><g id="Long_Stamen" data-name="Long Stamen"><path class="cls-14" d="M1574.07,980.38a53.89,53.89,0,0,0-72.45,79.69L1277,1326.85l6.42,5.41,224.67-266.79a53.89,53.89,0,0,0,66-85.09Z"/><path class="cls-15" d="M1730.17,1250.75a53.89,53.89,0,0,0-106.72,14.47l-343.59,60,1.45,8.27,343.59-60a53.89,53.89,0,0,0,105.27-22.75Z"/><path class="cls-16" d="M1656.23,1484.58a53.89,53.89,0,0,0-71.33,16.12l-301.74-174.93L1279,1333,1580.69,1508a53.89,53.89,0,1,0,75.54-23.38Z"/><path class="cls-17" d="M1469,1689.81a53.9,53.9,0,0,0-65-33.51l-118.71-328-7.9,2.86,118.71,328a53.89,53.89,0,1,0,72.9,30.65Z"/><path class="cls-18" d="M1165.43,1659.23,1285.3,1331.7l-7.89-2.89-119.87,327.53a53.93,53.93,0,1,0,7.89,2.89Z"/><path class="cls-19" d="M1283.14,1334.26,1279,1327,976.59,1500.83a53.89,53.89,0,1,0,4.19,7.28Z"/><path class="cls-20" d="M1281.31,1326.56l-343.38-61.17a53.88,53.88,0,1,0-1.47,8.27l343.37,61.17Z"/><path class="cls-21" d="M1283.38,1327.76l-223.72-267.58a53.89,53.89,0,1,0-6.44,5.39l223.72,267.58Z"/><path class="cls-22" d="M1334.6,927.5a53.9,53.9,0,1,0-58.18,53.72L1275.8,1330l8.4,0,.62-348.78A53.9,53.9,0,0,0,1334.6,927.5Z"/></g></g></g><circle id="Pistil" class="cls-23" cx="1280" cy="1330" r="130.2"/></svg>